#format: frame checksums
#version: 1
#hash: MD5
#tb 0: 1/25
#stream#, dts,        pts, duration,     size, hash
0,         -1,          0,        1,    21508, 3d3a2215baac9c1b22a2475cefb35083
0,          0,          1,        1,     5810, 13396229b7222f886d1934d107516d63
0,          1,          2,        1,     5448, adb9b18974897fe1cab2562661a9ded4
0,          2,          3,        1,     5381, cbf71463ed1ecd558ccf345484adde10
0,          3,          4,        1,     5520, 6ebf9d46e9f3ffff69c1b71f9ee6eae9
0,          4,          5,        1,     5509, a14ab4aa196e89d3f3d07176b8376ade
0,          5,          6,        1,     5479, 90f769a615631bd494fde8a9cd95423b
0,          6,          7,        1,     5674, 22b7a556ee67e7cecc540461cb626007
0,          7,          8,        1,     5588, d065d8381cc6ad59b22564542cf7dc26
0,          8,          9,        1,     5569, 0de6b8517eb0dda07cf4d2475ae3808e
0,          9,         10,        1,     5665, b60c47483c95764f1b7e1ad7667bdcf3
0,         10,         11,        1,     5747, 07640dcbc47e82a01ab7e2efa4f1aecc
0,         11,         12,        1,    21684, 0a7d5941e1ae409aad3dab13130e13e0
0,         12,         13,        1,     6408, 1fc6c22c336299c9601781e9618a86cf
0,         13,         14,        1,     6182, b09f82556a9ee1ca396b03caed1a76be
0,         14,         15,        1,     6115, 3db9358275bd2740720cb82e7a562ef2
0,         15,         16,        1,     6101, 9e4b9fb3737b4c210768cb80da54563d
0,         16,         17,        1,     6148, 29d8646b2c6fee5c8e929ee247afbaa6
0,         17,         18,        1,     6397, 55e6b066d1f83244c54c200304f154ae
0,         18,         19,        1,     6456, f42d30c4f3cf730af14f45eee12a69bf
0,         19,         20,        1,     6642, 09a85aa9d0147ef104662e4fc736cba0
0,         20,         21,        1,     6903, d8e1357b626c20d3b8bd68ffb64a089d
0,         21,         22,        1,     6978, 1e315f6f7996a64bcacdc50448d9e0e3
0,         22,         23,        1,     6977, 03eacb9d36d41fe6125b461635c8e574
0,         23,         24,        1,    25755, ec10d038e30b71c0078bd40ca842a969
0,         24,         25,        1,     7552, 76c55bd5764ce4a37ace67d26cea2265
0,         25,         26,        1,     7314, ed9ff1fffa454881756180e64b9a0f69
0,         26,         27,        1,     7390, 74cb3beda5eb4750ee55a3b143abd410
0,         27,         28,        1,     7420, eb760ef1b9aac6a69519e62d8c690e5f
0,         28,         29,        1,     7582, 492d31851dd30ca0bb2a4e7672e83b39
0,         29,         30,        1,     7764, 1d5a49a5fc18d853c23bc05d9fb99ae9
0,         30,         31,        1,     7785, da0576d2da010c5c6d2c1e78215f821a
0,         31,         32,        1,     7874, af0ddd5cd0cae606e0d757f110f15ba3
0,         32,         33,        1,     7901, 6108db29dc5b8c3595c3cb039e434a23
0,         33,         34,        1,     7936, c6f6ef58a12a69b2c29ddf377c540764
0,         34,         35,        1,     8072, 4a6d807a1702884c0d026fe399b28a22
0,         35,         36,        1,    28942, 831cb6be249830d913231fefed6f293c
0,         36,         37,        1,     8661, c60530d92eb27699892f85afc68ef594
0,         37,         38,        1,     8591, 1eaa1ef0fe33f7735b981e6410d8a02d
0,         38,         39,        1,     8132, 0add27c39f81f09d31e4e4e82d981ec9
0,         39,         40,        1,     8296, 9b89f79ccda257b41769fa9183ea3218
0,         40,         41,        1,     8406, 1a60f4d056ac90ada4765d143723f26e
0,         41,         42,        1,     8422, 76ef366a7c3c5e99917787bbe0b024f2
0,         42,         43,        1,     8491, 82b6d627fe74d3a661b65cd2da3b3862
0,         43,         44,        1,     8391, 28c29515225768780468e993d8d8c26c
0,         44,         45,        1,     8559, e9be02f737d92469b9e418159e05713c
0,         45,         46,        1,     8523, a31b3cef43ac7082e4a9384834c08ff4
0,         46,         47,        1,     8633, 6c483f4b5751332510507672df2c147b
0,         47,         48,        1,    30906, 656fbbd6bf3646cf3bcce629bb9d4339
0,         48,         49,        1,     9272, d3ab72f2a3196b6a1d074e444083467d
